<svg xmlns="http://www.w3.org/2000/svg" width="21.002" height="21" viewBox="0 0 21.002 21">
  <path id="_ionicons_svg_ios-key" d="M62.952,56.587a5.7,5.7,0,0,0-1.888.207c-2.554-2.176-9.3-7.92-9.819-8.456A1.018,1.018,0,0,0,50.489,48a1.684,1.684,0,0,0-1.075.485c-.348.333-1.666,1.757-1.413,2.019.757.777.959.934,1.272,1.252.469.48,1.429-.05,1.817.116a.744.744,0,0,1,.525.631,9.436,9.436,0,0,1-.151,1.2,1.263,1.263,0,0,0,.464.959,1.062,1.062,0,0,0,.788.439c.454.01,1.055-.646,1.535-.156s-.313,1.2-.252,1.716a1.906,1.906,0,0,0,1.09,1.217c.308.066,1.1-.591,1.55-.49a1.053,1.053,0,0,1,.555.575c.05.232-.348,1.262-.3,1.494a3.549,3.549,0,0,0,.525.878,5.685,5.685,0,0,0-.475,2.408,6.017,6.017,0,1,0,12.025,0A6.05,6.05,0,0,0,62.952,56.587Zm1.171,9.182a1.615,1.615,0,1,1,1.615-1.615A1.614,1.614,0,0,1,64.123,65.769Z" transform="translate(-47.968 -48)" fill="#fff"/>
</svg>
