<svg xmlns="http://www.w3.org/2000/svg" width="30.007" height="30" viewBox="0 0 30.007 30">
  <g id="_ionicons_svg_ios-finger-print" transform="translate(-48 -48)">
    <path id="Path_329" data-name="Path 329" d="M77.055,57.666a11.241,11.241,0,0,0-2.38-4.148.993.993,0,0,0-1.4,0,1,1,0,0,0,0,1.4,9.561,9.561,0,0,1,1.933,3.47,14.442,14.442,0,0,1,.822,4.552c0,.216-.007.548-.014.729a.949.949,0,0,0,.26.707.959.959,0,0,0,.685.317H77a.991.991,0,0,0,.988-.945c.007-.224.014-.584.014-.815a16.4,16.4,0,0,0-.952-5.266Zm-22.2-5.15a.984.984,0,0,0,.577-.188A12.91,12.91,0,0,1,63,49.969a12.732,12.732,0,0,1,8.2,3.087,1.024,1.024,0,0,0,.635.231.984.984,0,0,0,.757-.353,1,1,0,0,0-.123-1.392A14.727,14.727,0,0,0,63,48a14.906,14.906,0,0,0-8.728,2.727.988.988,0,0,0,.577,1.789ZM49.976,62.931a13.015,13.015,0,0,1,3.21-8.562.987.987,0,0,0-.1-1.392.983.983,0,0,0-1.392.094A15.01,15.01,0,0,0,48,62.931a21.1,21.1,0,0,0,1.111,6.506.982.982,0,0,0,.945.7,1,1,0,0,0,.289-.043.987.987,0,0,0,.584-.476.97.97,0,0,0,.072-.75A19.268,19.268,0,0,1,49.976,62.931Z" fill="#fff"/>
    <path id="Path_330" data-name="Path 330" d="M116.012,96.211a10.5,10.5,0,0,0-6.975-2.611,11.776,11.776,0,0,0-8.764,3.614,10.892,10.892,0,0,0-2.864,8.3,31.748,31.748,0,0,0,.671,4.8,19.431,19.431,0,0,1,.368,6.066,1.025,1.025,0,0,0,.721,1.053.78.78,0,0,0,.26.036,1,1,0,0,0,.988-.931,21.215,21.215,0,0,0-.4-6.629,30.737,30.737,0,0,1-.635-4.552,8.948,8.948,0,0,1,2.337-6.817,9.816,9.816,0,0,1,7.314-2.986,8.537,8.537,0,0,1,5.677,2.128,12.118,12.118,0,0,1,3.535,5.85,28.447,28.447,0,0,1,.656,10.423,1,1,0,0,0,.887,1.082c.029,0,.065.007.094.007a.981.981,0,0,0,.981-.894,30.228,30.228,0,0,0-.729-11.166,14,14,0,0,0-4.126-6.78Z" transform="translate(-45.817 -42.311)" fill="#fff"/>
    <path id="Path_331" data-name="Path 331" d="M162.637,152.166a12.119,12.119,0,0,0-2.929-6.535,7.489,7.489,0,0,0-5.547-2.431,9.033,9.033,0,0,0-3.9.866,1,1,0,0,0-.534.656.988.988,0,0,0,.959,1.219,1.076,1.076,0,0,0,.426-.094,7.121,7.121,0,0,1,3.044-.664,5.567,5.567,0,0,1,4.205,1.919,10.33,10.33,0,0,1,2.315,5.381,35.554,35.554,0,0,1,.512,5.273,39.067,39.067,0,0,1-.346,5.273.965.965,0,0,0,.18.736.985.985,0,0,0,.642.4,1.075,1.075,0,0,0,.151.014.979.979,0,0,0,.974-.837,39.126,39.126,0,0,0,.375-5.59,36.255,36.255,0,0,0-.527-5.583Zm-13.575-4.616a.987.987,0,0,0-.815-1.544,1,1,0,0,0-.815.426,7.688,7.688,0,0,0-1.039,5.756,39.972,39.972,0,0,1,.678,11.9,1.023,1.023,0,0,0,.209.772.945.945,0,0,0,.678.368c.029,0,.058.007.087.007a.987.987,0,0,0,.974-.851c.591-4.162-.014-8.67-.685-12.537A5.67,5.67,0,0,1,149.061,147.55Zm9.536,13.308h-.036a.986.986,0,0,0-.952,1.024,13,13,0,0,1-.188,2.5,1,1,0,0,0,.656,1.14,1.117,1.117,0,0,0,.31.05.983.983,0,0,0,.967-.8,15.281,15.281,0,0,0,.224-2.965A.971.971,0,0,0,158.6,160.858Z" transform="translate(-91.158 -88.333)" fill="#fff"/>
    <path id="Path_332" data-name="Path 332" d="M200.843,190.961a4.2,4.2,0,0,0-2.921-1.161,4.333,4.333,0,0,0-3.434,1.479,5,5,0,0,0-.786,4.328,39.738,39.738,0,0,1,.584,12.667.985.985,0,0,0,.851,1.1.742.742,0,0,0,.123.007.989.989,0,0,0,.981-.866,41.789,41.789,0,0,0-.6-13.3,3.26,3.26,0,0,1,.368-2.691,2.4,2.4,0,0,1,1.9-.757c1.8,0,2.532,1.991,2.763,2.842a33.634,33.634,0,0,1,.83,7.769.992.992,0,0,0,.988.974h.014a.985.985,0,0,0,.974-1,35.658,35.658,0,0,0-.9-8.252A6.547,6.547,0,0,0,200.843,190.961Z" transform="translate(-135.055 -131.572)" fill="#fff"/>
    <path id="Path_333" data-name="Path 333" d="M240.749,238.013a.991.991,0,0,0-.916-.613,1.084,1.084,0,0,0-.375.072.987.987,0,0,0-.534,1.291,21.474,21.474,0,0,1,1.017,5.973,46.832,46.832,0,0,1-.144,7.906.99.99,0,0,0,.209.729.959.959,0,0,0,.664.361.546.546,0,0,0,.108.007.985.985,0,0,0,.981-.88,49.206,49.206,0,0,0,.144-8.353,22.32,22.32,0,0,0-1.154-6.492Z" transform="translate(-177.082 -175.738)" fill="#fff"/>
  </g>
</svg>
