<svg xmlns="http://www.w3.org/2000/svg" width="21" height="21" viewBox="0 0 21 21">
  <path id="_ionicons_svg_ios-contact" d="M58.5,48a10.5,10.5,0,0,0-10.439,9.394,10.118,10.118,0,0,0,0,2.211A10.5,10.5,0,1,0,58.5,48Zm6.855,16.462c-1.146-.434-3-1.07-4.16-1.413-.121-.035-.136-.045-.136-.54a2.873,2.873,0,0,1,.333-1.176,5.866,5.866,0,0,0,.464-1.6,3.547,3.547,0,0,0,.687-1.661,2.216,2.216,0,0,0-.02-1.393.893.893,0,0,1-.03-.086,9.078,9.078,0,0,1,.156-1.959,3.607,3.607,0,0,0-.752-2.59,3.859,3.859,0,0,0-2.953-1.413h-.883a3.854,3.854,0,0,0-2.928,1.413,3.591,3.591,0,0,0-.757,2.59,9.077,9.077,0,0,1,.156,1.959c-.01.035-.02.061-.03.091a2.178,2.178,0,0,0-.02,1.393,3.6,3.6,0,0,0,.687,1.661,6.11,6.11,0,0,0,.464,1.6,2.82,2.82,0,0,1,.192,1.191c0,.5-.02.5-.131.54-1.2.353-2.973.979-4.038,1.4a9.086,9.086,0,1,1,13.7-.01Z" transform="translate(-48 -48)" fill="#fff"/>
</svg>
